<svg width="19" height="19" viewBox="0 0 19 19" fill="none" xmlns="http://www.w3.org/2000/svg">
<path d="M7.79077 3.04885C8.58727 1.64839 9.89924 0.626458 11.4381 0.207852C12.9769 -0.210754 14.6165 0.00826046 15.9963 0.816715C17.376 1.62517 18.3828 2.95684 18.7952 4.51877C19.2076 6.08071 18.9919 7.74496 18.1954 9.14541L17.9684 9.54296C17.892 9.67724 17.7662 9.77522 17.6187 9.81534C17.4711 9.85547 17.3139 9.83446 17.1816 9.75694L13.1901 7.4184L10.9656 11.3705C12.5092 11.8464 13.8363 12.928 14.7844 14.3264C14.3666 14.2985 13.9531 14.4257 13.6209 14.6842C12.515 13.2203 10.9299 12.2767 9.21576 12.2767C7.50163 12.2767 5.91652 13.2203 4.81063 14.6854C4.47856 14.4264 4.06503 14.2988 3.64714 14.3264C4.93734 12.4229 6.9268 11.1074 9.21576 11.1074C9.40353 11.1074 9.589 11.1168 9.77216 11.1332L12.1925 6.83377L7.7758 4.24384C7.64351 4.16631 7.54698 4.03862 7.50745 3.88885C7.46791 3.73908 7.48861 3.57951 7.56499 3.44523L7.79077 3.04768V3.04885ZM8.85174 3.52591L10.8135 4.6753C10.8177 4.6686 10.8219 4.66198 10.8262 4.65542C11.4437 3.79016 12.0243 3.12485 12.7834 2.54138C13.3504 2.11593 13.9578 1.74892 14.5966 1.44578C13.549 1.07412 12.4076 1.07783 11.3623 1.45629C10.3171 1.83476 9.43107 2.56515 8.85174 3.52591ZM14.4042 6.77881C14.9399 5.82469 15.1968 5.07168 15.2866 4.34089C15.3592 3.75275 15.327 3.15408 15.2187 2.43966C14.4941 2.7881 13.9446 3.1155 13.4792 3.47329C12.8617 3.94801 12.3699 4.49406 11.8158 5.26227L14.4042 6.77881ZM15.4018 7.36345L17.2577 8.45087C17.7607 7.51171 17.9494 6.43204 17.7952 5.37458C17.641 4.31711 17.1524 3.33917 16.4029 2.58816C16.4847 3.24295 16.5066 3.86032 16.4294 4.48588C16.3154 5.41077 15.9916 6.31344 15.4018 7.36345ZM4.30606 15.8933C4.26659 15.773 4.18966 15.669 4.08688 15.5969C3.98409 15.5249 3.86102 15.4887 3.73622 15.4939C3.61142 15.499 3.49164 15.5452 3.39496 15.6255C3.29827 15.7057 3.22991 15.8157 3.20017 15.9389C3.00434 16.7503 2.6334 17.1958 2.21063 17.4542C1.76827 17.7255 1.20496 17.8307 0.575985 17.8307C0.423224 17.8307 0.27672 17.8923 0.168702 18.002C0.0606839 18.1116 0 18.2603 0 18.4154C0 18.5704 0.0606839 18.7191 0.168702 18.8288C0.27672 18.9384 0.423224 19 0.575985 19C1.31094 19 2.11156 18.8807 2.8062 18.4563C3.22027 18.2024 3.56924 17.8526 3.82454 17.4355C5.19884 19.214 7.88178 19.2058 9.21576 17.4168C10.5716 19.2339 13.3168 19.214 14.6703 17.3502C15.038 17.858 15.5174 18.2716 16.0704 18.558C16.6234 18.8444 17.2347 18.9958 17.8555 19C18.0083 19 18.1548 18.9384 18.2628 18.8288C18.3708 18.7191 18.4315 18.5704 18.4315 18.4154C18.4315 18.2603 18.3708 18.1116 18.2628 18.002C18.1548 17.8923 18.0083 17.8307 17.8555 17.8307C16.7231 17.8307 15.5942 17.0824 15.221 15.8991C15.1837 15.7819 15.111 15.6797 15.0131 15.607C14.9152 15.5342 14.7972 15.4947 14.6759 15.4941C14.5546 15.4934 14.4362 15.5317 14.3375 15.6034C14.2389 15.675 14.1651 15.7765 14.1266 15.8933C13.3859 18.1605 10.4864 18.1312 9.76064 15.9868C9.72172 15.8715 9.64828 15.7715 9.55058 15.7006C9.45289 15.6298 9.33582 15.5917 9.21576 15.5917C9.0957 15.5917 8.97863 15.6298 8.88094 15.7006C8.78324 15.7715 8.7098 15.8715 8.67088 15.9868C7.94514 18.1312 5.04563 18.1605 4.30491 15.8933H4.30606Z" fill="#C4C4C4"/>
</svg>
