<svg width="21" height="21" viewBox="0 0 21 21" fill="none" xmlns="http://www.w3.org/2000/svg">
<path d="M0 18.375V5.90625C0 4.33982 0.622264 2.83754 1.7299 1.7299C2.83754 0.622264 4.33982 0 5.90625 0H15.0938C15.8694 0 16.6374 0.15277 17.354 0.449587C18.0706 0.746403 18.7217 1.18145 19.2701 1.7299C19.8185 2.27835 20.2536 2.92945 20.5504 3.64603C20.8472 4.36261 21 5.13063 21 5.90625V15.0938C21 15.8694 20.8472 16.6374 20.5504 17.354C20.2536 18.0706 19.8185 18.7217 19.2701 19.2701C18.7217 19.8185 18.0706 20.2536 17.354 20.5504C16.6374 20.8472 15.8694 21 15.0938 21H2.625C1.92881 21 1.26113 20.7234 0.768845 20.2312C0.276562 19.7389 0 19.0712 0 18.375Z" fill="#2356B6"/>
<path d="M5.25 10.5H9.84375C10.5399 10.5 11.2076 10.7766 11.6999 11.2688C12.1922 11.7611 12.4688 12.4288 12.4688 13.125C12.4688 13.8212 12.1922 14.4889 11.6999 14.9812C11.2076 15.4734 10.5399 15.75 9.84375 15.75H5.25V6.5625C5.25 6.2144 5.38828 5.88056 5.63442 5.63442C5.88056 5.38828 6.2144 5.25 6.5625 5.25H8.53125C9.22744 5.25 9.89512 5.52656 10.3874 6.01885C10.8797 6.51113 11.1562 7.17881 11.1562 7.875C11.1562 8.57119 10.8797 9.23887 10.3874 9.73115C9.89512 10.2234 9.22744 10.5 8.53125 10.5H6.5625M15.75 15.75H15.7631" stroke="white" stroke-width="2" stroke-linecap="round" stroke-linejoin="round"/>
</svg>
