<svg width="21" height="21" viewBox="0 0 21 21" fill="none" xmlns="http://www.w3.org/2000/svg">
<path d="M0 18.375V5.90625C0 4.33982 0.622264 2.83754 1.7299 1.7299C2.83754 0.622264 4.33982 0 5.90625 0H15.0938C15.8694 0 16.6374 0.15277 17.354 0.449587C18.0706 0.746403 18.7217 1.18145 19.2701 1.7299C19.8185 2.27835 20.2536 2.92945 20.5504 3.64603C20.8472 4.36261 21 5.13063 21 5.90625V15.0938C21 15.8694 20.8472 16.6374 20.5504 17.354C20.2536 18.0706 19.8185 18.7217 19.2701 19.2701C18.7217 19.8185 18.0706 20.2536 17.354 20.5504C16.6374 20.8472 15.8694 21 15.0938 21H2.625C1.92881 21 1.26113 20.7234 0.768845 20.2312C0.276562 19.7389 0 19.0712 0 18.375Z" fill="#2356B6"/>
<path d="M15.9939 9.53072L12.8462 9.05168L11.4391 6.06446C11.4007 5.98267 11.3375 5.91647 11.2594 5.87622C11.0635 5.77496 10.8255 5.85934 10.7275 6.06446L9.32043 9.05168L6.17273 9.53072C6.08595 9.54371 6.00661 9.58655 5.94586 9.65146C5.87242 9.7305 5.83195 9.83684 5.83335 9.94712C5.83474 10.0574 5.87789 10.1626 5.9533 10.2396L8.2307 12.5647L7.69265 15.8479C7.68004 15.9243 7.68811 16.0028 7.71595 16.0746C7.74379 16.1464 7.7903 16.2086 7.85019 16.2542C7.91007 16.2997 7.98095 16.3268 8.05478 16.3323C8.12861 16.3378 8.20244 16.3216 8.26789 16.2854L11.0833 14.7353L13.8988 16.2854C13.9756 16.3282 14.0649 16.3425 14.1505 16.3269C14.3662 16.288 14.5112 16.0738 14.474 15.8479L13.936 12.5647L16.2134 10.2396C16.2754 10.1759 16.3163 10.0929 16.3287 10.002C16.3621 9.77479 16.2109 9.56448 15.9939 9.53072Z" fill="white"/>
</svg>
