<svg width="22" height="25" viewBox="0 0 22 25" fill="none" xmlns="http://www.w3.org/2000/svg">
<path d="M21.3533 2.71503C20.455 0.503362 17.9029 -0.574137 15.6521 0.307945C13.9354 0.981695 12.8929 2.60128 12.8921 4.31252H9.05041L7.62249 2.90961C6.56124 1.86628 4.83916 1.86586 3.7775 2.90961L0 6.62044L0.576666 7.1871L4.35416 3.47586C5.09749 2.74544 6.30249 2.74586 7.04583 3.47586L7.89707 4.31252H6.92999C8.87916 8.84252 2.95333 17.0471 9.84707 18.4258C9.84249 18.4279 9.83707 18.43 9.84124 18.4317C11.9483 19.1617 11.8358 20.9029 11.1479 22.5421C10.4192 24.2783 8.67374 24.595 8.65749 24.605C8.60582 24.635 8.57541 24.73 8.58291 24.8288C8.59249 24.9271 8.63707 25 8.69082 25H15.61C15.6633 25 15.7087 24.9271 15.7171 24.8288C15.7258 24.73 15.6937 24.635 15.6425 24.605C15.6258 24.595 13.8817 24.2783 13.1525 22.5421C12.4646 20.9025 12.3525 19.1617 14.4587 18.4317C14.4637 18.43 14.4575 18.4279 14.4529 18.4258C19.4696 17.4229 17.6991 12.8054 17.1133 8.61919C17.7247 8.64296 18.3345 8.53997 18.9041 8.31669C21.1546 7.43502 22.2508 4.92669 21.3533 2.71503ZM12.1504 17.8888C3.43791 17.8888 9.56041 9.14419 7.77166 4.69836H8.28999L11.7558 8.10335C10.9208 7.85252 10.0433 7.64794 9.08457 7.64794C8.94166 7.64794 8.79791 7.65252 8.65082 7.6621C8.62041 9.2396 8.17791 11.0342 8.02041 12.6396C7.77291 15.17 8.23624 17.2317 12.15 17.2317C15.4083 17.2317 16.2746 15.8021 16.3312 13.8638C16.3733 12.4079 15.9591 10.665 15.7558 9.02252C15.6971 9.02502 15.6392 9.02585 15.5804 9.02585C14.8692 9.02585 14.1708 8.86002 13.4592 8.6446L9.44207 4.69794H12.9079C12.9454 5.10377 13.04 5.51086 13.2017 5.90877C13.7562 7.27585 14.9433 8.20794 16.3004 8.51377C16.8408 12.8779 18.7454 17.8888 12.1504 17.8888ZM15.3925 11.6771L15.5008 11.5708C15.5925 12.1763 15.6675 12.7592 15.6908 13.3021C15.6546 13.3029 15.6175 13.3038 15.58 13.3038C14.7033 13.3038 13.8017 13.0092 12.8471 12.6971C11.7442 12.3371 10.4937 11.9283 9.08541 11.9283C8.97207 11.9283 8.85916 11.9308 8.74541 11.9363C8.79999 11.5458 8.86499 11.1459 8.93207 10.7304C9.06374 9.91668 9.19916 9.08085 9.25791 8.27502C10.3929 8.3071 11.4358 8.64835 12.445 8.97877C12.5454 9.01169 12.6446 9.04252 12.7446 9.0746L15.3925 11.6771ZM14.3467 9.51585C14.6275 9.5721 14.91 9.61794 15.1979 9.63793C15.2396 9.92127 15.285 10.2021 15.33 10.4821L14.3467 9.51585ZM15.4892 7.64877C15.6025 7.63419 15.6783 7.53585 15.7616 7.53169C15.7846 7.53044 15.9658 7.16669 16.1841 6.7021C16.1829 6.79919 16.1816 6.89627 16.1833 6.99502C16.0337 7.35252 15.9204 7.63919 15.9041 7.72919C15.8904 7.81169 16.0037 7.8596 16.0304 7.93919C16.0425 7.97627 16.1246 8.00627 16.2475 8.03044L16.2683 8.2271C15.0362 7.91919 13.965 7.06002 13.4575 5.81044C13.3138 5.45476 13.2223 5.0802 13.1858 4.69836H13.4312C13.4433 5.08127 13.4771 5.39252 13.5304 5.43252C13.6204 5.50002 13.7462 5.48294 13.8075 5.53711C13.84 5.56502 15.2704 5.04752 16.1316 4.69836H16.3462C15.5421 5.00544 14.0746 5.57419 13.8842 5.70336C13.8146 5.75211 13.86 5.86419 13.8212 5.93794C13.7162 6.1346 15.3054 7.67085 15.4892 7.64877ZM18.8012 8.06585C18.2527 8.2805 17.6649 8.37609 17.0766 8.34627C17.0662 8.26377 17.0566 8.18127 17.0471 8.09919C17.6833 8.11752 18.3933 8.08127 18.4558 8.00294C18.5266 7.91502 18.5083 7.79377 18.5641 7.73377C18.6071 7.68794 17.4558 4.75836 17.3854 4.86044C17.325 4.94752 17.2387 4.89294 17.1825 4.85419C17.2354 4.66919 17.2954 4.48752 17.3704 4.31252H16.7208C16.7225 4.24711 16.7921 4.17919 16.8004 4.15294C16.8004 4.15294 14.1279 3.00878 13.8108 2.95544C13.7262 2.94044 13.6771 3.05086 13.5954 3.07586C13.4825 3.11169 13.43 3.72169 13.4258 4.31252H13.1667C13.1675 2.70753 14.1446 1.19003 15.7537 0.558779C17.8633 -0.268304 20.2571 0.741278 21.0983 2.81503C21.9396 4.88794 20.9116 7.2396 18.8012 8.06585Z" fill="#C4C4C4"/>
<path d="M18.55 0.68919C18.4804 0.47794 16.2367 0.482524 16.1233 0.624607C16.0537 0.712524 16.0717 0.834607 16.0158 0.89419C15.9729 0.94044 17.1254 3.87002 17.195 3.76794C17.2746 3.6521 17.4029 3.78877 17.4412 3.80044C17.4412 3.80044 18.6196 1.20627 18.675 0.89794C18.6896 0.816274 18.5762 0.76794 18.55 0.68919ZM21.0362 3.16752C20.9458 3.09919 20.8208 3.11627 20.7579 3.06252C20.7112 3.02085 17.6942 4.1396 17.7987 4.20669C17.9183 4.2846 17.7771 4.40877 17.7642 4.44627C17.7642 4.44627 20.4379 5.59002 20.7542 5.6446C20.8396 5.65877 20.8887 5.54835 20.97 5.52252C21.1871 5.45543 21.1829 3.27669 21.0362 3.16752ZM15.6362 0.955857C15.4337 0.85419 13.85 2.3971 13.8733 2.57544C13.8883 2.68585 13.9883 2.7596 13.9937 2.84044C13.9979 2.90252 16.9446 4.18335 16.92 4.06294C16.8925 3.92585 17.0829 3.93585 17.1187 3.91752C17.1187 3.91752 16.0621 1.27336 15.8775 1.01752C15.8271 0.948773 15.7117 0.99294 15.6362 0.955857ZM17.7358 4.60794C17.7637 4.74502 17.5729 4.73627 17.5371 4.7546C17.5371 4.7546 18.5942 7.39752 18.7792 7.65418C18.8283 7.72168 18.9437 7.67793 19.0187 7.71502C19.2217 7.81627 20.805 6.27293 20.7817 6.09502C20.7679 5.98502 20.6658 5.91168 20.6617 5.83002C20.6583 5.76877 17.7117 4.48835 17.7358 4.60794ZM17.5612 3.89377C17.7029 3.86585 17.6937 4.05127 17.7121 4.08627C17.7121 4.08627 20.4342 3.06044 20.6987 2.88044C20.7683 2.83294 20.7229 2.7196 20.7612 2.64627C20.8658 2.4496 19.2767 0.91294 19.0933 0.935023C18.98 0.94919 18.9037 1.04794 18.8204 1.05294C18.7579 1.05627 17.4392 3.9171 17.5612 3.89377Z" fill="#C4C4C4"/>
</svg>
